# xmcd
#
# Track frame offsets: 
#        150
#        15372
#        27573
#        50660
#        67798
#        85219
#        100030
#        112330
#        126686
#        143656
#        164890
#        176374
#        192113
#        207556
#        219978
#        233107
#        245107
#        257575
#        269370
#        279105
#        294422
#        305710
#        318713
#        330805
#
# Disc length: 4587 seconds
#
# Revision: 4
# Processed by: cddbd v1.5.2PL0 Copyright (c) Steve Scherf et al.
# Submitted via: ExactAudioCopyFreeDBPlugin 1.0
#
DISCID=6911e918
DTITLE=Horst Jankowski - Jazzclub Originals - For Nightpeople Only
DYEAR=1970
DGENRE=Jazz
TTITLE0=Nightpeople only
TTITLE1=Öl ins Feuer (Light my Fire)
TTITLE2=Lady Eve
TTITLE3=Der Mann, den's nicht gibt (Fool on the Hill)
TTITLE4=Regen fällt heute auf die Welt (Raindrops keep fallin')
TTITLE5=Magali
TTITLE6=Das ist der Morgen
TTITLE7=Wisst ihr auch
TTITLE8=Geh' mit mir durch den Regenbogen (Bridge over troubled Water)
TTITLE9=Kleine grüne Apfel (Little green Apples)
TTITLE10=Willst du nicht ein bisschen Leben mit mir
TTITLE11=Heut' fängt das Leben an (We've only just  begun)
TTITLE12=So wie heut' (Didn't we)
TTITLE13=Pink Balloon
TTITLE14=Like a Ruby in the Sunset
TTITLE15=Dreamflight
TTITLE16=Nur im Traum
TTITLE17=Ein Hoch auf die Liebe
TTITLE18=Alle Vögel sind schon da
TTITLE19=Heideröslein
TTITLE20=Ein Jäger aus Kurpfalz
TTITLE21=Du, Du liegst mir im Herzen
TTITLE22=In einem kühlen Grunde
TTITLE23=Ach, wie ist's möglich dann
EXTD=YEAR: 2009
EXTT0=
EXTT1=
EXTT2=
EXTT3=
EXTT4=
EXTT5=
EXTT6=
EXTT7=
EXTT8=
EXTT9=
EXTT10=
EXTT11=
EXTT12=
EXTT13=
EXTT14=
EXTT15=
EXTT16=
EXTT17=
EXTT18=
EXTT19=
EXTT20=
EXTT21=
EXTT22=
EXTT23=
PLAYORDER=
